# xmcd
#
# Track frame offsets:
#	150
#	11237
#	21149
#	34967
#	51447
#	63054
#	76498
#	91124
#	104705
#	118786
#	132122
#	149417
#
# Disc length: 2106 seconds
#
# Revision: 1
# Processed by: cddbd v1.5.2PL0 Copyright (c) Steve Scherf et al.
# Submitted via: audiograbber 1.83.01
#
DISCID=a508380c
DTITLE=Clarence Deveaux - My Favourites
DYEAR=2006
DGENRE=Country
TTITLE0=Hello Darlin'
TTITLE1=Begging to You
TTITLE2=All I Have to Offer You
TTITLE3=Too Old to Die Young
TTITLE4=Before She Made Me Crawl
TTITLE5=Image of Me
TTITLE6=Don't Come Crying to Me
TTITLE7=Pass Me By
TTITLE8=I Can't Believe
TTITLE9=Next In Line
TTITLE10=Farewell Party
TTITLE11=Buckaroo (Instrumental)
EXTD=
EXTT0=
EXTT1=
EXTT2=
EXTT3=
EXTT4=
EXTT5=
EXTT6=
EXTT7=
EXTT8=
EXTT9=
EXTT10=
EXTT11=
PLAYORDER=
